<?xml version="1.0" encoding="utf-8"?>
<!-- Generator: Adobe Illustrator 25.4.1, SVG Export Plug-In . SVG Version: 6.00 Build 0)  -->
<svg version="1.1" id="Layer_1" xmlns="http://www.w3.org/2000/svg" xmlns:xlink="http://www.w3.org/1999/xlink" x="0px" y="0px"
	 viewBox="0 0 64 64" style="enable-background:new 0 0 64 64;" xml:space="preserve">
<style type="text/css">
	.st0{fill:#111111;}
</style>
<path id="path-1_00000077301803962442399170000001096068187635026833_" class="st0" d="M32,4c15.5,0,28,12.5,28,28S47.5,60,32,60
	S4,47.5,4,32S16.5,4,32,4z M39.6,41.2l-0.2,0.2C37.3,43,34.8,44,32,44c-2.7,0-5.2-0.9-7.3-2.5c-4.6,1.9-7.6,5.4-7.7,9.2
	C21.1,54,26.3,56,32,56c6.1,0,11.7-2.3,15.9-6C47.4,46.3,44.2,43,39.6,41.2z M32,8C18.7,8,8,18.7,8,32c0,5.9,2.1,11.2,5.6,15.4
	c1.2-3.7,4.2-6.9,8.2-8.9C20,36,19,32.9,19,29.5c0-8,5.8-14.5,13-14.5s13,6.5,13,14.5c0,3.2-0.9,6.2-2.5,8.6
	c4.1,1.9,7.2,4.9,8.6,8.4c3.1-4,4.9-9.1,4.9-14.5C56,18.7,45.3,8,32,8z M32,19c-4.9,0-9,4.6-9,10.5S27.1,40,32,40s9-4.6,9-10.5
	S36.9,19,32,19z"/>
</svg>
