<?xml version="1.0" encoding="utf-8"?>
<!-- Generator: Adobe Illustrator 25.4.1, SVG Export Plug-In . SVG Version: 6.00 Build 0)  -->
<svg version="1.1" id="Layer_1" xmlns="http://www.w3.org/2000/svg" xmlns:xlink="http://www.w3.org/1999/xlink" x="0px" y="0px"
	 viewBox="0 0 64 64" style="enable-background:new 0 0 64 64;" xml:space="preserve">
<path id="path-1_00000119835407693331798160000006854259007924152478_" d="M25,4c11.6,0,21,9.4,21,21c0,5.1-1.8,9.7-4.8,13.4
	l18.2,18.2c0.8,0.8,0.8,2,0,2.8c-0.7,0.7-1.9,0.8-2.7,0.1l-0.1-0.1L38.4,41.2c-3.6,3-8.3,4.8-13.4,4.8C13.4,46,4,36.6,4,25
	S13.4,4,25,4z M25,8C15.6,8,8,15.6,8,25s7.6,17,17,17s17-7.6,17-17S34.4,8,25,8z"/>
</svg>
