<?xml version="1.0" encoding="utf-8"?>
<!-- Generator: Adobe Illustrator 25.4.1, SVG Export Plug-In . SVG Version: 6.00 Build 0)  -->
<svg version="1.1" id="Layer_1" xmlns="http://www.w3.org/2000/svg" xmlns:xlink="http://www.w3.org/1999/xlink" x="0px" y="0px"
	 viewBox="0 0 64 64" style="enable-background:new 0 0 64 64;" xml:space="preserve">
<style type="text/css">
	.st0{fill-rule:evenodd;clip-rule:evenodd;}
</style>
<path id="path-1_00000152252371878549577110000013222337010911284921_" class="st0" d="M32,4c15.5,0,28,12.5,28,28S47.5,60,32,60
	S4,47.5,4,32S16.5,4,32,4z M32,8C18.7,8,8,18.7,8,32s10.7,24,24,24s24-10.7,24-24S45.3,8,32,8z M45.5,20c1.1,0.8,1.3,2.3,0.6,3.4
	L46,23.5l-18,24c-1,1.3-3,1.3-4,0l-0.1-0.1l-9-14c-0.7-1.2-0.4-2.7,0.8-3.5c1.1-0.7,2.6-0.4,3.4,0.6l0.1,0.1l7.1,11L42,20.5
	C42.8,19.4,44.4,19.2,45.5,20z"/>
</svg>
